<?xml version="1.0" standalone="no"?>
<!DOCTYPE svg PUBLIC "-//W3C//DTD SVG 20010904//EN"
 "http://www.w3.org/TR/2001/REC-SVG-20010904/DTD/svg10.dtd">
<svg version="1.0" xmlns="http://www.w3.org/2000/svg"
 width="710.000000pt" height="702.000000pt" viewBox="0 0 710.000000 702.000000"
 preserveAspectRatio="xMidYMid meet">
<g transform="translate(0.000000,702.000000) scale(0.100000,-0.100000)"
fill="#000000" stroke="none">
<path d="M4553 6734 c-6 -3 -31 -43 -54 -90 -36 -71 -41 -87 -28 -95 46 -30
640 -380 652 -385 11 -4 27 15 56 65 46 78 54 138 23 169 -9 9 -141 90 -293
180 -274 161 -307 176 -356 156z"/>
<path d="M4128 6604 c-26 -8 -62 -29 -80 -47 -20 -18 -146 -227 -293 -482
-251 -436 -259 -452 -263 -512 -4 -52 0 -71 24 -121 l27 -59 468 -272 467
-272 263 -214 263 -214 334 -368 c184 -202 361 -403 394 -445 33 -43 66 -78
72 -78 21 0 131 82 241 179 302 269 538 630 710 1086 65 172 129 407 166 600
6 33 15 80 19 105 5 25 12 66 15 92 l6 47 -49 -6 c-91 -10 -448 48 -747 123
-456 114 -859 263 -1095 404 -280 169 -786 454 -818 461 -49 11 -68 10 -124
-7z m2532 -1199 c28 -34 -50 -306 -156 -539 -97 -214 -256 -484 -424 -721
-159 -224 -193 -255 -220 -204 -13 23 -23 7 143 237 296 410 512 838 573 1137
9 44 21 86 26 93 14 17 43 15 58 -3z"/>
<path d="M2660 3382 l-1064 -1827 -317 -456 c-174 -250 -324 -470 -333 -487
-22 -43 -21 -133 3 -180 42 -81 62 -91 461 -242 550 -208 498 -193 615 -188
128 5 184 28 213 91 65 140 77 254 41 398 -23 90 -24 108 -22 404 1 171 6 369
10 440 l8 130 1013 1592 c556 875 1012 1595 1012 1599 0 4 21 43 46 86 26 43
45 81 42 83 -6 7 -642 377 -653 381 -5 1 -489 -819 -1075 -1824z"/>
</g>
</svg>
