<?xml version="1.0" standalone="no"?>
<!DOCTYPE svg PUBLIC "-//W3C//DTD SVG 20010904//EN"
 "http://www.w3.org/TR/2001/REC-SVG-20010904/DTD/svg10.dtd">
<svg version="1.0" xmlns="http://www.w3.org/2000/svg"
 width="232.000000pt" height="142.000000pt" viewBox="0 0 232.000000 142.000000"
 preserveAspectRatio="xMidYMid meet">
<g transform="translate(0.000000,142.000000) scale(0.100000,-0.100000)"
fill="#000000" stroke="none">
<path d="M820 1397 c-92 -31 -156 -71 -222 -138 -62 -63 -120 -170 -140 -256
-12 -51 -14 -53 -46 -53 -85 0 -230 -75 -298 -154 -84 -97 -119 -208 -112
-356 4 -82 10 -108 35 -161 58 -123 147 -206 271 -253 l69 -26 834 2 834 3 60
31 c74 39 148 116 183 192 24 51 27 69 27 167 0 98 -3 116 -27 167 -53 113
-143 192 -249 219 -49 13 -49 13 -66 72 -32 115 -137 239 -246 290 -68 32
-155 50 -227 45 l-58 -3 -58 62 c-68 72 -152 125 -243 153 -90 28 -234 27
-321 -3z m324 -181 c73 -36 131 -92 176 -171 18 -33 34 -61 35 -63 2 -2 31 7
66 19 155 52 305 -14 375 -165 19 -40 24 -68 24 -128 l0 -78 66 0 c87 0 135
-15 185 -59 54 -45 79 -100 79 -174 0 -93 -43 -167 -124 -210 l-41 -22 -780 0
c-726 0 -784 1 -832 18 -62 22 -134 83 -171 145 -25 43 -27 56 -27 147 0 114
14 150 82 219 74 75 158 98 294 81 l57 -7 4 94 c7 133 33 195 117 279 88 88
142 110 266 106 76 -2 99 -6 149 -31z"/>
<path d="M973 788 c-85 -19 -130 -98 -120 -212 6 -62 23 -95 70 -130 34 -25
127 -33 182 -14 36 12 40 17 43 51 2 20 1 37 -2 37 -3 0 -21 -9 -40 -21 -39
-23 -102 -27 -135 -9 -13 6 -32 32 -43 57 -27 60 -17 116 27 160 41 41 83 43
149 8 l46 -24 0 39 c0 35 -3 39 -32 48 -55 17 -101 20 -145 10z"/>
<path d="M1253 789 c-41 -10 -43 -12 -43 -46 0 -38 1 -38 66 -12 71 28 115
-21 79 -88 -11 -19 -50 -62 -87 -95 -54 -48 -68 -66 -68 -89 l0 -29 125 0 125
0 0 25 c0 25 -1 25 -82 25 l-81 0 70 73 c74 76 90 114 75 171 -16 57 -92 85
-179 65z"/>
</g>
</svg>
