<?xml version="1.0" standalone="no"?>
<!DOCTYPE svg PUBLIC "-//W3C//DTD SVG 20010904//EN"
 "http://www.w3.org/TR/2001/REC-SVG-20010904/DTD/svg10.dtd">
<svg version="1.0" xmlns="http://www.w3.org/2000/svg"
 width="139.000000pt" height="106.000000pt" viewBox="0 0 139.000000 106.000000"
 preserveAspectRatio="xMidYMid meet">
<g transform="translate(0.000000,106.000000) scale(0.100000,-0.100000)"
fill="#000000" stroke="none">
<path d="M30 1030 c-19 -19 -20 -33 -20 -500 0 -467 1 -481 20 -500 20 -20 33
-20 665 -20 632 0 645 0 665 20 19 19 20 33 20 421 0 242 -4 408 -10 419 -19
35 -63 40 -384 40 l-311 0 -105 70 -105 70 -207 0 c-195 0 -209 -1 -228 -20z
m748 -339 c102 -52 148 -136 140 -256 l-5 -75 28 0 c17 0 58 -21 106 -52 78
-53 78 -53 78 -97 0 -36 -5 -47 -27 -64 -17 -13 -34 -18 -51 -14 -37 10 -177
105 -177 121 0 25 -21 29 -43 8 -57 -53 -183 -72 -259 -38 -52 22 -105 72
-131 120 -29 54 -30 174 -3 226 69 131 220 184 344 121z"/>
<path d="M614 620 c-18 -6 -48 -28 -67 -49 -57 -64 -62 -142 -11 -208 34 -44
73 -63 132 -63 121 0 196 123 143 234 -35 72 -120 109 -197 86z"/>
</g>
</svg>
