<?xml version="1.0" standalone="no"?>
<!DOCTYPE svg PUBLIC "-//W3C//DTD SVG 20010904//EN"
 "http://www.w3.org/TR/2001/REC-SVG-20010904/DTD/svg10.dtd">
<svg version="1.0" xmlns="http://www.w3.org/2000/svg"
 width="228.000000pt" height="228.000000pt" viewBox="0 0 228.000000 228.000000"
 preserveAspectRatio="xMidYMid meet">
<g transform="translate(0.000000,228.000000) scale(0.100000,-0.100000)"
fill="#000000" stroke="none">
<path d="M1353 2120 c-95 -19 -179 -87 -222 -178 -17 -37 -30 -51 -50 -55 -47
-10 -120 -65 -151 -114 -55 -86 -65 -174 -30 -265 26 -70 66 -117 131 -153
l54 -30 435 0 435 0 45 27 c99 58 144 182 108 300 -15 51 -89 133 -132 149
-26 9 -37 21 -46 50 -29 88 -128 159 -221 159 -38 0 -50 5 -75 31 -37 39 -85
63 -152 78 -59 12 -69 12 -129 1z m145 -167 c19 -9 49 -36 66 -60 27 -40 33
-43 61 -37 104 23 185 -36 185 -133 l0 -43 46 0 c89 0 146 -97 94 -162 -37
-47 -51 -49 -451 -46 l-376 3 -36 28 c-72 55 -73 154 -2 216 31 27 43 31 95
31 l60 0 0 35 c0 40 22 100 48 129 50 56 139 73 210 39z"/>
<path d="M610 1801 c0 -44 -2 -49 -26 -55 -67 -17 -151 -95 -188 -175 -16 -35
-21 -66 -21 -131 0 -122 -2 -120 99 -120 l85 0 -19 43 c-11 23 -20 56 -20 72
0 40 31 104 64 134 l26 24 0 -46 c0 -26 3 -47 8 -47 11 0 172 164 172 175 0
12 -161 175 -173 175 -4 0 -7 -22 -7 -49z"/>
<path d="M191 1204 c-20 -26 -21 -38 -21 -389 0 -351 1 -363 21 -389 l20 -26
205 0 204 0 0 -45 0 -45 -85 0 -85 0 0 -75 0 -75 290 0 290 0 0 75 0 75 -80 0
-80 0 0 45 0 45 200 0 c185 0 201 1 219 19 11 11 23 35 26 53 3 18 5 187 3
374 -3 320 -4 343 -22 363 -19 21 -23 21 -552 21 l-533 0 -20 -26z m969 -389
l0 -265 -420 0 -420 0 0 265 0 265 420 0 420 0 0 -265z"/>
<path d="M1665 1213 c20 -46 27 -92 21 -125 -7 -37 -59 -118 -76 -118 -6 0
-10 18 -10 40 0 22 -3 40 -8 40 -11 0 -172 -164 -172 -175 0 -12 161 -175 173
-175 4 0 7 22 7 49 l0 48 47 18 c68 26 144 106 171 178 22 58 28 143 16 206
l-6 31 -85 0 c-77 0 -84 -2 -78 -17z"/>
</g>
</svg>
