<?xml version="1.0" standalone="no"?>
<!DOCTYPE svg PUBLIC "-//W3C//DTD SVG 20010904//EN"
 "http://www.w3.org/TR/2001/REC-SVG-20010904/DTD/svg10.dtd">
<svg version="1.0" xmlns="http://www.w3.org/2000/svg"
 width="338.000000pt" height="484.000000pt" viewBox="0 0 338.000000 484.000000"
 preserveAspectRatio="xMidYMid meet">
<g transform="translate(0.000000,484.000000) scale(0.100000,-0.100000)"
fill="#000000" stroke="none">
<path d="M1505 4805 c-486 -76 -887 -423 -1021 -884 -50 -173 -54 -230 -54
-873 0 -472 -3 -598 -12 -598 -7 0 -96 -7 -198 -15 -102 -8 -191 -15 -197 -15
-10 0 -13 -235 -13 -1139 l0 -1139 68 -6 c37 -4 415 -31 839 -61 l773 -55 772
55 c425 30 803 57 841 61 l67 6 0 1138 0 1138 -67 6 c-38 4 -416 31 -841 61
l-773 55 -412 -30 c-227 -16 -429 -31 -450 -33 l-38 -3 3 616 c4 598 4 617 26
695 70 255 243 466 475 580 142 70 224 88 397 88 173 0 255 -18 397 -88 180
-89 319 -228 408 -408 77 -157 87 -213 93 -504 l4 -253 179 0 179 0 0 223 c0
390 -52 593 -215 837 -266 401 -760 619 -1230 545z m-889 -3030 c3 -8 2 -51
-3 -95 -5 -44 -6 -80 -3 -80 3 0 37 23 75 50 38 28 73 50 77 50 12 0 48 -62
48 -83 0 -16 -33 -35 -140 -79 -24 -10 -20 -13 58 -49 51 -24 82 -45 82 -54 0
-23 -27 -72 -43 -78 -8 -3 -45 17 -82 44 -37 27 -71 49 -74 49 -4 0 -3 -36 2
-80 5 -44 6 -87 3 -95 -7 -19 -94 -21 -102 -2 -2 7 0 51 5 97 5 47 9 86 8 87
-1 0 -35 -23 -75 -52 -40 -30 -79 -52 -86 -49 -18 7 -50 67 -44 84 2 7 38 28
79 46 40 18 73 36 72 40 0 5 -34 23 -74 40 -41 18 -75 38 -77 44 -6 17 19 70
38 80 13 7 34 -3 89 -41 40 -28 74 -50 75 -48 2 2 -1 40 -6 84 -4 44 -6 85 -4
92 8 19 95 17 102 -2z m720 0 c3 -8 2 -51 -3 -95 -5 -44 -6 -80 -3 -80 3 0 37
23 75 50 38 28 73 50 77 50 12 0 48 -62 48 -83 0 -16 -33 -35 -140 -79 -24
-10 -20 -13 58 -49 51 -24 82 -45 82 -54 0 -23 -27 -72 -43 -78 -8 -3 -45 17
-82 44 -37 27 -71 49 -74 49 -4 0 -3 -36 2 -80 5 -44 6 -87 3 -95 -7 -19 -94
-21 -102 -2 -2 7 0 51 5 97 5 47 9 86 8 87 -1 0 -35 -23 -75 -52 -40 -30 -79
-52 -86 -49 -18 7 -50 67 -44 84 2 7 38 28 79 46 40 18 73 36 72 40 0 5 -34
23 -74 40 -41 18 -75 38 -77 44 -6 17 19 70 38 80 13 7 34 -3 89 -41 40 -28
74 -50 75 -48 2 2 -1 40 -6 84 -4 44 -6 85 -4 92 8 19 95 17 102 -2z m720 0
c3 -8 2 -51 -3 -95 -5 -44 -6 -80 -3 -80 3 0 37 23 75 50 38 28 73 50 77 50
12 0 48 -62 48 -83 0 -16 -33 -35 -140 -79 -24 -10 -20 -13 58 -49 51 -24 82
-45 82 -54 0 -23 -27 -72 -43 -78 -8 -3 -45 17 -82 44 -37 27 -71 49 -74 49
-4 0 -3 -36 2 -80 5 -44 6 -87 3 -95 -7 -19 -94 -21 -102 -2 -2 7 0 51 5 97 5
47 9 86 8 87 -1 0 -35 -23 -75 -52 -40 -30 -79 -52 -86 -49 -18 7 -50 67 -44
84 2 7 38 28 79 46 40 18 73 36 72 40 0 5 -34 23 -74 40 -41 18 -75 38 -77 44
-6 17 19 70 38 80 13 7 34 -3 89 -41 40 -28 74 -50 75 -48 2 2 -1 40 -6 84 -4
44 -6 85 -4 92 8 19 95 17 102 -2z m720 0 c3 -8 2 -51 -3 -95 -5 -44 -6 -80
-3 -80 3 0 37 23 75 50 38 28 73 50 77 50 12 0 48 -62 48 -83 0 -16 -33 -35
-140 -79 -24 -10 -20 -13 58 -49 51 -24 82 -45 82 -54 0 -23 -27 -72 -43 -78
-8 -3 -45 17 -82 44 -37 27 -71 49 -74 49 -4 0 -3 -36 2 -80 5 -44 6 -87 3
-95 -7 -19 -94 -21 -102 -2 -2 7 0 51 5 97 5 47 9 86 8 87 -1 0 -35 -23 -75
-52 -40 -30 -79 -52 -86 -49 -18 7 -50 67 -44 84 2 7 38 28 79 46 40 18 73 36
72 40 0 5 -34 23 -74 40 -41 18 -75 38 -77 44 -6 17 19 70 38 80 13 7 34 -3
89 -41 40 -28 74 -50 75 -48 2 2 -1 40 -6 84 -4 44 -6 85 -4 92 8 19 95 17
102 -2z"/>
</g>
</svg>
