<?xml version="1.0" standalone="no"?>
<!DOCTYPE svg PUBLIC "-//W3C//DTD SVG 20010904//EN"
 "http://www.w3.org/TR/2001/REC-SVG-20010904/DTD/svg10.dtd">
<svg version="1.0" xmlns="http://www.w3.org/2000/svg"
 width="149.000000pt" height="168.000000pt" viewBox="0 0 149.000000 168.000000"
 preserveAspectRatio="xMidYMid meet">
<g transform="translate(0.000000,168.000000) scale(0.100000,-0.100000)"
fill="#000000" stroke="none">
<path d="M655 1658 c-11 -6 -48 -37 -82 -69 -102 -95 -248 -167 -369 -184 -87
-12 -119 -24 -149 -56 l-30 -30 1 -197 c1 -179 3 -206 27 -294 51 -193 159
-378 312 -537 95 -99 253 -224 305 -242 42 -15 90 -4 136 31 48 36 58 37 95 6
84 -71 257 -87 369 -35 70 33 136 99 169 169 23 48 26 68 26 155 0 87 -3 107
-26 155 -14 30 -47 76 -73 101 l-47 46 25 75 c43 126 58 242 54 415 l-3 155
-36 33 c-30 27 -49 35 -95 40 -145 18 -301 90 -409 188 -39 35 -80 69 -92 75
-27 15 -82 15 -108 0z m124 -222 c114 -93 257 -161 394 -186 l67 -12 0 -127
c0 -132 -15 -227 -51 -322 l-21 -57 -76 -4 c-135 -6 -245 -79 -301 -198 -28
-61 -41 -196 -23 -248 9 -26 7 -30 -24 -51 l-34 -24 -40 28 c-184 127 -348
328 -424 518 -47 118 -58 176 -63 333 l-5 151 63 12 c144 27 289 95 399 186
36 30 67 54 69 54 2 1 34 -23 70 -53z m253 -933 l78 -78 78 78 c42 42 81 77
86 77 5 0 18 -8 28 -17 18 -16 16 -20 -64 -100 l-83 -83 85 -85 85 -85 -23
-22 -22 -23 -85 85 -85 85 -83 -83 c-80 -80 -84 -82 -100 -64 -9 10 -17 23
-17 28 0 5 35 44 77 86 l78 78 -80 80 c-78 78 -79 80 -60 100 10 11 21 20 24
20 3 0 41 -35 83 -77z"/>
</g>
</svg>
