<?xml version="1.0" standalone="no"?>
<!DOCTYPE svg PUBLIC "-//W3C//DTD SVG 20010904//EN"
 "http://www.w3.org/TR/2001/REC-SVG-20010904/DTD/svg10.dtd">
<svg version="1.0" xmlns="http://www.w3.org/2000/svg"
 width="128.000000pt" height="78.000000pt" viewBox="0 0 128.000000 78.000000"
 preserveAspectRatio="xMidYMid meet">
<g transform="translate(0.000000,78.000000) scale(0.100000,-0.100000)"
fill="#000000" stroke="none">
<path d="M464 712 c-130 -46 -265 -140 -374 -259 -42 -45 -50 -61 -50 -92 0
-33 7 -45 52 -88 179 -168 362 -253 548 -253 186 0 369 85 548 253 46 44 52
55 52 90 0 38 -6 47 -88 127 -105 102 -206 172 -311 213 -65 26 -92 31 -186
34 -101 3 -117 1 -191 -25z m264 -118 c153 -63 191 -267 71 -381 -146 -138
-388 -36 -389 165 0 130 99 231 228 232 29 0 69 -7 90 -16z m-364 -88 c-37
-81 -36 -179 4 -257 16 -33 26 -59 22 -59 -9 0 -149 98 -195 137 -44 37 -42
42 40 115 41 37 144 117 152 118 1 0 -9 -24 -23 -54z m700 -85 l59 -59 -38
-34 c-41 -36 -185 -138 -195 -138 -4 0 6 25 22 56 38 77 40 183 3 262 l-25 53
58 -40 c31 -22 84 -67 116 -100z"/>
<path d="M556 511 c-46 -31 -66 -69 -66 -131 0 -95 55 -150 150 -150 95 0 150
55 150 150 0 95 -55 150 -150 150 -37 0 -64 -6 -84 -19z"/>
</g>
</svg>
