<?xml version="1.0" standalone="no"?>
<!DOCTYPE svg PUBLIC "-//W3C//DTD SVG 20010904//EN"
 "http://www.w3.org/TR/2001/REC-SVG-20010904/DTD/svg10.dtd">
<svg version="1.0" xmlns="http://www.w3.org/2000/svg"
 width="122.000000pt" height="96.000000pt" viewBox="0 0 122.000000 96.000000"
 preserveAspectRatio="xMidYMid meet">
<g transform="translate(0.000000,96.000000) scale(0.100000,-0.100000)"
fill="#000000" stroke="none">
<path d="M10 480 l0 -470 600 0 600 0 0 470 0 470 -600 0 -600 0 0 -470z
m1110 -75 l0 -295 -510 0 -510 0 0 295 0 295 510 0 510 0 0 -295z"/>
<path d="M237 582 c-10 -10 -17 -23 -17 -28 0 -5 27 -36 60 -69 l60 -59 -62
-63 -62 -63 24 -25 25 -25 90 90 90 90 -85 85 c-47 47 -90 85 -96 85 -6 0 -18
-8 -27 -18z"/>
<path d="M460 285 l0 -35 120 0 120 0 0 35 0 35 -120 0 -120 0 0 -35z"/>
</g>
</svg>
