<?xml version="1.0" standalone="no"?>
<!DOCTYPE svg PUBLIC "-//W3C//DTD SVG 20010904//EN"
 "http://www.w3.org/TR/2001/REC-SVG-20010904/DTD/svg10.dtd">
<svg version="1.0" xmlns="http://www.w3.org/2000/svg"
 width="144.000000pt" height="144.000000pt" viewBox="0 0 144.000000 144.000000"
 preserveAspectRatio="xMidYMid meet">
<g transform="translate(0.000000,144.000000) scale(0.100000,-0.100000)"
fill="#000000" stroke="none">
<path d="M874 1354 c-86 -42 -85 -178 2 -219 70 -33 146 -3 173 69 39 104 -73
201 -175 150z"/>
<path d="M534 1102 c-19 -13 -124 -212 -124 -236 0 -54 82 -77 117 -33 10 13
34 54 53 90 34 65 36 67 73 67 l39 0 -35 -62 c-19 -35 -78 -145 -132 -245
l-97 -183 -132 0 c-153 0 -176 -9 -176 -65 0 -59 20 -65 211 -65 193 0 172
-11 246 127 l49 91 97 -103 96 -103 -19 -113 c-11 -63 -20 -126 -20 -141 0
-30 32 -58 67 -58 44 0 58 29 81 171 33 197 37 180 -74 297 l-96 102 72 132
c39 73 75 136 79 140 3 4 33 -10 66 -32 l60 -40 106 0 c116 0 139 10 139 62 0
43 -28 58 -111 58 l-74 0 -120 75 -119 75 -156 0 c-85 0 -160 -4 -166 -8z"/>
<path d="M1101 773 c-42 -84 -35 -161 20 -207 36 -31 111 -36 147 -10 54 38
68 134 31 211 l-21 43 -79 0 -79 0 -19 -37z"/>
</g>
</svg>
