<?xml version="1.0" standalone="no"?>
<!DOCTYPE svg PUBLIC "-//W3C//DTD SVG 20010904//EN"
 "http://www.w3.org/TR/2001/REC-SVG-20010904/DTD/svg10.dtd">
<svg version="1.0" xmlns="http://www.w3.org/2000/svg"
 width="120.000000pt" height="121.000000pt" viewBox="0 0 120.000000 121.000000"
 preserveAspectRatio="xMidYMid meet">
<g transform="translate(0.000000,121.000000) scale(0.100000,-0.100000)"
fill="#000000" stroke="none">
<path d="M958 1123 c-83 -83 -87 -90 -82 -123 5 -34 1 -39 -110 -150 l-116
-114 -67 -1 c-84 0 -123 -24 -149 -90 -40 -107 27 -208 140 -209 61 -1 95 18
134 75 20 29 23 43 19 90 l-5 56 118 118 c113 113 119 117 152 111 32 -6 38
-2 122 83 l88 89 -70 7 -69 7 -9 69 -9 70 -87 -88z"/>
<path d="M431 1144 c-190 -51 -350 -206 -404 -391 -40 -137 -27 -293 36 -423
43 -89 168 -214 257 -257 332 -160 722 18 815 372 17 67 19 198 5 265 -13 57
-50 150 -60 150 -4 0 -13 -7 -21 -16 -9 -11 -22 -14 -42 -10 -33 7 -34 16 7
-99 59 -163 20 -336 -105 -469 -209 -224 -565 -196 -734 59 -130 197 -101 443
71 604 133 125 306 164 469 105 115 -41 107 -40 99 -10 -4 19 -1 33 11 46 21
23 21 22 -22 44 -87 44 -275 59 -382 30z"/>
<path d="M480 941 c-105 -33 -203 -121 -241 -219 -30 -75 -31 -196 -3 -264 62
-150 187 -234 344 -232 195 2 346 144 358 335 4 78 -16 180 -39 195 -6 3 -27
-9 -46 -28 -30 -31 -33 -37 -23 -62 13 -36 12 -122 -3 -163 -24 -65 -73 -119
-133 -149 -227 -111 -461 123 -350 350 30 60 84 109 149 133 41 15 127 16 163
3 25 -10 31 -7 62 23 19 19 32 40 28 46 -20 31 -198 52 -266 32z"/>
</g>
</svg>
