<?xml version="1.0" standalone="no"?>
<!DOCTYPE svg PUBLIC "-//W3C//DTD SVG 20010904//EN"
 "http://www.w3.org/TR/2001/REC-SVG-20010904/DTD/svg10.dtd">
<svg version="1.0" xmlns="http://www.w3.org/2000/svg"
 width="136.000000pt" height="122.000000pt" viewBox="0 0 136.000000 122.000000"
 preserveAspectRatio="xMidYMid meet">
<g transform="translate(0.000000,122.000000) scale(0.100000,-0.100000)"
fill="#000000" stroke="none">
<path d="M427 1203 c-4 -3 -7 -91 -7 -194 0 -161 2 -188 16 -193 9 -3 56 -6
105 -6 72 0 89 -3 89 -15 0 -10 -11 -15 -35 -15 -31 0 -35 -3 -35 -25 l0 -25
125 0 125 0 0 25 c0 22 -4 25 -35 25 -24 0 -35 5 -35 15 0 12 17 15 93 15 50
0 98 4 105 8 9 7 12 53 10 198 l-3 189 -256 3 c-140 1 -258 -1 -262 -5z m473
-193 l0 -150 -215 0 -215 0 0 150 0 150 215 0 215 0 0 -150z"/>
<path d="M660 675 l0 -25 -205 0 -205 0 0 -65 0 -65 30 0 c27 0 30 3 30 30 l0
30 375 0 375 0 0 -25 c0 -21 5 -25 30 -25 l30 0 0 60 0 60 -200 0 -200 0 0 25
c0 21 -5 25 -30 25 -25 0 -30 -4 -30 -25z"/>
<path d="M17 483 c-13 -12 -8 -368 5 -381 8 -8 46 -12 105 -12 76 0 93 -3 93
-15 0 -10 -10 -15 -30 -15 -25 0 -30 -4 -30 -25 l0 -25 120 0 120 0 0 25 c0
21 -5 25 -30 25 -20 0 -30 5 -30 15 0 12 17 15 94 15 67 0 97 4 105 14 8 9 11
70 9 197 l-3 184 -261 3 c-143 1 -263 -1 -267 -5z m483 -193 l0 -150 -220 0
-220 0 0 150 0 150 220 0 220 0 0 -150z"/>
<path d="M827 483 c-4 -3 -7 -91 -7 -194 0 -161 2 -188 16 -193 9 -3 56 -6
105 -6 72 0 89 -3 89 -15 0 -10 -11 -15 -35 -15 -31 0 -35 -3 -35 -25 l0 -25
125 0 125 0 0 25 c0 22 -4 25 -35 25 -24 0 -35 5 -35 15 0 12 17 15 93 15 50
0 98 4 105 8 9 7 12 53 10 198 l-3 189 -256 3 c-140 1 -258 -1 -262 -5z m473
-193 l0 -150 -215 0 -215 0 0 150 0 150 215 0 215 0 0 -150z"/>
</g>
</svg>
