<?xml version="1.0" standalone="no"?>
<!DOCTYPE svg PUBLIC "-//W3C//DTD SVG 20010904//EN"
 "http://www.w3.org/TR/2001/REC-SVG-20010904/DTD/svg10.dtd">
<svg version="1.0" xmlns="http://www.w3.org/2000/svg"
 width="180.000000pt" height="178.000000pt" viewBox="0 0 180.000000 178.000000"
 preserveAspectRatio="xMidYMid meet">
<g transform="translate(0.000000,178.000000) scale(0.100000,-0.100000)"
fill="#000000" stroke="none">
<path d="M502 1699 c-57 -17 -118 -87 -141 -164 -33 -105 -44 -240 -31 -360
10 -100 43 -242 60 -258 4 -5 76 -3 159 4 l151 13 0 41 c0 50 21 122 67 233
46 112 57 176 43 254 -13 70 -56 162 -92 195 -51 48 -137 64 -216 42z"/>
<path d="M1135 1273 c-70 -36 -122 -119 -144 -225 -16 -77 -7 -132 44 -263 53
-135 65 -178 65 -231 l0 -41 151 -12 c84 -7 156 -8 160 -4 15 15 49 165 60
264 19 171 -18 374 -81 451 -59 71 -181 101 -255 61z"/>
<path d="M565 825 c-66 -8 -128 -14 -139 -14 -17 -1 -18 -10 -15 -120 3 -102
7 -124 25 -148 35 -48 80 -65 156 -60 75 5 109 22 139 70 17 27 20 43 15 107
-8 101 -27 174 -46 176 -8 1 -69 -4 -135 -11z"/>
<path d="M1080 395 c-6 -15 -16 -70 -22 -122 -11 -88 -11 -97 7 -131 34 -61
65 -76 153 -77 58 0 85 5 105 18 52 34 62 61 66 188 l3 117 -48 6 c-27 3 -78
8 -114 11 -36 3 -82 8 -102 11 -34 5 -39 3 -48 -21z"/>
</g>
</svg>
