<?xml version="1.0" standalone="no"?>
<!DOCTYPE svg PUBLIC "-//W3C//DTD SVG 20010904//EN"
 "http://www.w3.org/TR/2001/REC-SVG-20010904/DTD/svg10.dtd">
<svg version="1.0" xmlns="http://www.w3.org/2000/svg"
 width="512.000000pt" height="512.000000pt" viewBox="0 0 512.000000 512.000000"
 preserveAspectRatio="xMidYMid meet">
<g transform="translate(0.000000,512.000000) scale(0.100000,-0.100000)"
fill="#000000" stroke="none">
<path d="M3770 4658 c-135 -15 -272 -115 -331 -242 -117 -250 6 -536 265 -618
94 -30 231 -22 319 20 285 133 346 512 118 725 -97 91 -227 131 -371 115z"/>
<path d="M2775 4303 c-214 -25 -364 -61 -514 -124 -56 -23 -103 -45 -106 -48
-4 -7 315 -575 332 -592 5 -5 47 5 94 21 469 162 982 -40 1222 -480 43 -77 93
-224 103 -298 4 -29 10 -55 15 -58 8 -5 681 15 687 21 7 6 -30 218 -53 303
-63 235 -196 491 -340 655 l-25 28 -41 -27 c-82 -51 -166 -76 -278 -82 -125
-6 -188 6 -296 58 -197 94 -326 289 -342 515 -7 97 6 88 -153 105 -91 9 -241
11 -305 3z"/>
<path d="M1850 3938 c-242 -193 -441 -474 -545 -769 l-27 -76 89 -89 c101
-101 143 -171 173 -290 53 -205 -5 -409 -161 -567 -89 -90 -86 -74 -33 -205
48 -116 125 -249 210 -362 74 -99 254 -279 337 -338 l46 -33 14 23 c21 33 327
579 327 583 0 2 -30 32 -66 67 -418 401 -414 1053 9 1460 l69 66 -181 291
c-101 160 -185 291 -189 291 -4 -1 -36 -24 -72 -52z"/>
<path d="M887 3010 c-122 -15 -252 -105 -320 -220 -84 -145 -71 -350 31 -486
81 -106 192 -164 330 -172 235 -13 424 137 464 368 51 296 -198 547 -505 510z"/>
<path d="M3916 2486 c-24 -131 -54 -227 -101 -323 -102 -207 -254 -357 -460
-458 -146 -72 -239 -96 -395 -102 -147 -6 -237 6 -367 49 -52 17 -95 29 -97
27 -9 -12 -336 -590 -336 -594 0 -21 260 -113 410 -146 164 -36 525 -37 668
-2 16 4 22 13 22 32 0 46 28 134 67 210 71 141 209 253 371 301 98 30 266 25
357 -9 100 -38 93 -40 164 46 213 258 352 587 385 910 l7 61 -53 6 c-29 3
-185 7 -346 9 -292 4 -292 4 -296 -17z"/>
<path d="M3725 1323 c-122 -44 -215 -127 -268 -241 -54 -115 -50 -268 9 -385
76 -152 217 -237 394 -237 256 0 440 184 440 441 0 178 -94 325 -258 402 -59
28 -79 32 -167 34 -77 3 -112 -1 -150 -14z"/>
</g>
</svg>
