<?xml version="1.0" standalone="no"?>
<!DOCTYPE svg PUBLIC "-//W3C//DTD SVG 20010904//EN"
 "http://www.w3.org/TR/2001/REC-SVG-20010904/DTD/svg10.dtd">
<svg version="1.0" xmlns="http://www.w3.org/2000/svg"
 width="270.000000pt" height="255.000000pt" viewBox="0 0 270.000000 255.000000"
 preserveAspectRatio="xMidYMid meet">
<g transform="translate(0.000000,255.000000) scale(0.100000,-0.100000)"
fill="#000000" stroke="none">
<path d="M593 2540 c-237 -43 -459 -238 -545 -480 -20 -58 -23 -83 -22 -220 0
-139 3 -164 28 -245 78 -257 252 -542 518 -850 132 -152 476 -487 637 -620 73
-60 137 -110 141 -110 17 0 279 226 430 371 326 312 534 563 701 843 269 451
272 812 9 1094 -187 202 -445 272 -675 186 -131 -49 -273 -176 -384 -345 -38
-58 -72 -111 -75 -117 -4 -9 -8 -9 -11 -1 -3 6 -37 60 -76 119 -118 181 -267
309 -416 355 -76 23 -190 32 -260 20z m452 -542 c23 -22 32 -57 125 -557 55
-294 102 -537 105 -539 6 -6 8 -2 165 415 74 194 142 362 153 373 26 29 74 23
99 -11 11 -14 54 -143 95 -285 41 -142 77 -261 80 -264 2 -2 52 46 111 108
l107 112 133 0 c72 0 132 -4 132 -8 0 -5 -18 -37 -40 -70 l-40 -62 -62 0 -63
0 -134 -150 c-73 -82 -142 -152 -153 -156 -29 -9 -66 4 -82 29 -8 12 -42 119
-76 237 -34 118 -65 219 -68 224 -2 4 -24 -43 -48 -105 -223 -592 -268 -707
-286 -726 -27 -29 -60 -29 -92 -1 -23 21 -32 60 -121 538 -53 283 -98 522
-102 530 -3 8 -35 -73 -72 -182 -36 -108 -74 -205 -84 -216 -27 -29 -70 -34
-246 -26 l-158 7 -41 68 -41 69 194 0 194 0 101 310 c104 315 125 360 169 360
11 0 31 -10 46 -22z"/>
</g>
</svg>
