<?xml version="1.0" standalone="no"?>
<!DOCTYPE svg PUBLIC "-//W3C//DTD SVG 20010904//EN"
 "http://www.w3.org/TR/2001/REC-SVG-20010904/DTD/svg10.dtd">
<svg version="1.0" xmlns="http://www.w3.org/2000/svg"
 width="178.000000pt" height="180.000000pt" viewBox="0 0 178.000000 180.000000"
 preserveAspectRatio="xMidYMid meet">
<g transform="translate(0.000000,180.000000) scale(0.100000,-0.100000)"
fill="#000000" stroke="none">
<path d="M882 1619 c-5 -13 -47 -138 -93 -276 l-84 -253 -277 0 c-158 0 -278
-4 -278 -9 0 -5 95 -91 210 -192 145 -126 209 -187 206 -198 -3 -9 -39 -129
-80 -268 -42 -138 -76 -259 -76 -267 0 -9 93 50 243 153 l242 169 75 -53 c336
-235 410 -283 410 -269 0 8 -34 129 -76 267 -41 139 -77 259 -80 268 -3 11 61
72 206 198 115 101 210 187 210 192 0 5 -120 9 -278 9 l-277 0 -89 268 c-49
147 -92 271 -97 276 -5 5 -12 -1 -17 -15z"/>
</g>
</svg>
