<?xml version="1.0" standalone="no"?>
<!DOCTYPE svg PUBLIC "-//W3C//DTD SVG 20010904//EN"
 "http://www.w3.org/TR/2001/REC-SVG-20010904/DTD/svg10.dtd">
<svg version="1.0" xmlns="http://www.w3.org/2000/svg"
 width="178.000000pt" height="178.000000pt" viewBox="0 0 178.000000 178.000000"
 preserveAspectRatio="xMidYMid meet">
<g transform="translate(0.000000,178.000000) scale(0.100000,-0.100000)"
fill="#000000" stroke="none">
<path d="M780 1660 c-127 -32 -246 -123 -313 -240 -39 -70 -57 -144 -57 -242
0 -129 34 -219 124 -331 17 -21 49 -71 71 -110 l41 -72 249 0 249 0 41 72 c22
39 54 89 71 110 90 112 124 202 124 331 0 51 -7 111 -16 143 -42 142 -153 262
-295 320 -60 24 -226 35 -289 19z m275 -147 c71 -36 148 -115 177 -181 13 -29
23 -76 26 -123 6 -106 -14 -168 -87 -267 -32 -43 -69 -98 -82 -120 l-24 -42
-170 0 -170 0 -38 63 c-21 34 -58 90 -82 125 -58 81 -79 155 -72 243 12 148
108 270 250 321 80 29 194 21 272 -19z"/>
<path d="M666 574 c-22 -21 -20 -67 2 -87 16 -15 47 -17 229 -17 191 0 211 2
226 18 21 23 22 66 1 86 -23 24 -435 24 -458 0z"/>
<path d="M680 397 c-19 -9 -26 -22 -28 -49 -5 -63 11 -68 243 -68 232 0 248 5
243 68 -5 57 -24 62 -243 62 -133 0 -198 -4 -215 -13z"/>
<path d="M770 205 c0 -29 30 -75 60 -90 62 -32 146 -11 175 45 30 58 28 60
-110 60 -106 0 -125 -2 -125 -15z"/>
</g>
</svg>
