<?xml version="1.0" standalone="no"?>
<!DOCTYPE svg PUBLIC "-//W3C//DTD SVG 20010904//EN"
 "http://www.w3.org/TR/2001/REC-SVG-20010904/DTD/svg10.dtd">
<svg version="1.0" xmlns="http://www.w3.org/2000/svg"
 width="178.000000pt" height="180.000000pt" viewBox="0 0 178.000000 180.000000"
 preserveAspectRatio="xMidYMid meet">
<g transform="translate(0.000000,180.000000) scale(0.100000,-0.100000)"
fill="#000000" stroke="none">
<path d="M852 1708 c-14 -14 -17 -165 -3 -186 5 -8 21 -12 37 -10 l29 3 0 100
c0 99 0 100 -25 103 -14 2 -31 -3 -38 -10z"/>
<path d="M346 1494 c-26 -25 -19 -42 41 -105 58 -61 89 -73 113 -44 20 24 4
59 -54 113 -58 55 -75 61 -100 36z"/>
<path d="M1317 1442 c-56 -57 -68 -87 -45 -110 21 -21 38 -13 99 45 63 60 75
94 40 113 -30 15 -33 14 -94 -48z"/>
<path d="M750 1424 c-71 -19 -132 -56 -198 -117 -95 -90 -142 -203 -142 -338
0 -122 34 -211 122 -322 16 -18 45 -65 66 -103 l37 -69 242 -3 243 -2 29 57
c16 32 53 90 81 128 67 90 96 152 112 242 40 234 -113 467 -347 529 -65 18
-175 17 -245 -2z m257 -126 c118 -43 211 -173 221 -307 6 -93 -15 -158 -85
-251 -30 -41 -66 -94 -80 -117 l-25 -43 -163 0 c-155 0 -164 1 -170 20 -3 11
-36 61 -71 110 -73 102 -92 141 -104 214 -29 180 109 366 292 394 66 10 118 5
185 -20z"/>
<path d="M829 1159 c-24 -26 -30 -28 -54 -19 -40 15 -69 -12 -61 -58 4 -24 0
-38 -15 -53 -10 -10 -23 -19 -29 -19 -5 0 -10 -15 -10 -34 0 -26 5 -36 21 -41
25 -8 39 -43 28 -71 -12 -33 26 -63 73 -57 31 4 39 1 53 -21 23 -35 67 -35 90
0 15 23 22 25 55 20 46 -7 75 17 65 57 -8 31 8 63 35 72 30 10 27 62 -4 76
-27 13 -37 39 -30 78 8 39 -24 65 -61 51 -24 -9 -30 -7 -55 20 -36 38 -67 38
-101 -1z"/>
<path d="M142 1008 c-7 -7 -12 -19 -12 -28 0 -32 23 -40 112 -40 96 0 115 11
97 58 -8 20 -14 22 -97 22 -55 0 -92 -4 -100 -12z"/>
<path d="M1422 1008 c-6 -6 -12 -20 -12 -29 0 -32 25 -40 115 -37 71 2 90 6
99 21 8 12 8 22 0 35 -9 14 -28 18 -100 20 -61 2 -93 -1 -102 -10z"/>
<path d="M1272 628 c-23 -23 -11 -53 45 -110 59 -59 90 -71 113 -43 18 22 4
48 -60 109 -60 57 -77 65 -98 44z"/>
<path d="M394 578 c-58 -54 -74 -89 -54 -113 24 -29 55 -17 113 44 61 64 67
79 39 104 -28 25 -38 22 -98 -35z"/>
<path d="M676 378 c-21 -30 -20 -54 4 -78 18 -18 33 -20 193 -20 197 0 217 6
217 65 0 24 -6 38 -19 45 -12 6 -95 10 -200 10 -175 0 -180 -1 -195 -22z"/>
<path d="M760 203 c0 -60 77 -111 145 -99 38 7 95 65 95 96 0 19 -7 20 -120
20 -108 0 -120 -2 -120 -17z"/>
</g>
</svg>
