<?xml version="1.0" standalone="no"?>
<!DOCTYPE svg PUBLIC "-//W3C//DTD SVG 20010904//EN"
 "http://www.w3.org/TR/2001/REC-SVG-20010904/DTD/svg10.dtd">
<svg version="1.0" xmlns="http://www.w3.org/2000/svg"
 width="117.000000pt" height="117.000000pt" viewBox="0 0 117.000000 117.000000"
 preserveAspectRatio="xMidYMid meet">
<g transform="translate(0.000000,117.000000) scale(0.100000,-0.100000)"
fill="#000000" stroke="none">
<path d="M432 1112 c-98 -35 -167 -110 -196 -213 -27 -93 -28 -92 75 -104 l56
-6 12 46 c24 96 85 157 167 171 112 17 224 -72 224 -180 0 -59 -17 -85 -124
-190 -119 -117 -146 -168 -146 -281 l0 -65 69 0 68 0 6 60 c4 34 12 71 18 83
6 12 58 70 115 128 124 127 148 171 148 275 -1 88 -26 145 -90 204 -71 66
-121 84 -244 87 -83 3 -116 0 -158 -15z"/>
<path d="M490 110 l0 -80 85 0 85 0 0 80 0 80 -85 0 -85 0 0 -80z"/>
</g>
</svg>
