<?xml version="1.0" standalone="no"?>
<!DOCTYPE svg PUBLIC "-//W3C//DTD SVG 20010904//EN"
 "http://www.w3.org/TR/2001/REC-SVG-20010904/DTD/svg10.dtd">
<svg version="1.0" xmlns="http://www.w3.org/2000/svg"
 width="512.000000pt" height="512.000000pt" viewBox="0 0 512.000000 512.000000"
 preserveAspectRatio="xMidYMid meet">
<g transform="translate(0.000000,512.000000) scale(0.100000,-0.100000)"
fill="#000000" stroke="none">
<path d="M3925 4856 c-533 -79 -1104 -162 -1267 -186 l-298 -44 0 -983 0 -983
1300 0 1300 0 0 1170 0 1170 -32 -1 c-18 0 -469 -65 -1003 -143z"/>
<path d="M1200 4465 c-470 -68 -892 -129 -937 -135 l-83 -12 0 -829 0 -829
965 0 965 0 0 965 0 965 -27 -1 c-16 -1 -413 -57 -883 -124z"/>
<path d="M180 1610 c0 -456 4 -830 8 -830 4 0 433 -61 952 -135 519 -74 950
-135 957 -135 11 0 13 188 13 965 l0 965 -965 0 -965 0 0 -830z"/>
<path d="M2360 1455 c0 -811 2 -985 13 -985 8 0 584 -83 1281 -185 698 -102
1277 -185 1287 -185 19 0 19 29 19 1170 l0 1170 -1300 0 -1300 0 0 -985z"/>
</g>
</svg>
